<?xml version="1.0" encoding="utf-8"?>
<!-- Generator: Adobe Illustrator 27.8.0, SVG Export Plug-In . SVG Version: 6.00 Build 0)  -->
<svg version="1.1" id="Capa_1" xmlns="http://www.w3.org/2000/svg" xmlns:xlink="http://www.w3.org/1999/xlink" x="0px" y="0px"
	 viewBox="0 0 469.5 469.5" style="enable-background:new 0 0 469.5 469.5;" xml:space="preserve">
<style type="text/css">
	.st0{fill:#FFFFFF;}
</style>
<g>
	<path class="st0" d="M462,455.4h-9v-49.9c0-4.1-3.4-7.5-7.5-7.5h-48V287.8c0-2.1-0.9-4.1-2.5-5.5l-11.6-10.6V168.9
		c0-2.4-1.1-4.6-3-6l-24.3-18c-2.3-1.7-5.3-1.9-7.8-0.7c-2.5,1.3-4.1,3.9-4.1,6.7v92L333,256.2c-1.1,1.3-1.7,3-1.7,4.8v104h-8v-53.8
		c0-4.1-3.4-7.5-7.5-7.5h-35.1v-67.5c0-4.1-3.4-7.5-7.5-7.5H238c-4.1,0-7.5,3.4-7.5,7.5v41.6h-7v-70.5c0-4.1-3.4-7.5-7.5-7.5h-35.2
		c-4.1,0-7.5,3.4-7.5,7.5v140.9h-29.1v-93.6c0-4.1-3.4-7.5-7.5-7.5h-33c-4.1,0-7.5,3.4-7.5,7.5v55.2H75.2c-4.1,0-7.5,3.4-7.5,7.5
		v113.4h-9.2v-78.7c0-4.1-3.4-7.5-7.5-7.5H27c-4.1,0-7.5,3.4-7.5,7.5v103.5h-12c-4.1,0-7.5,3.4-7.5,7.5s3.4,7.5,7.5,7.5H27
		c4.1,0,7.5-3.4,7.5-7.5V359.4h9v78.7c0,4.1,3.4,7.5,7.5,7.5h16.7v5.2c0,4.1,3.4,7.5,7.5,7.5s7.5-3.4,7.5-7.5V324.8h13.3v9.2
		c0,4.1,3.4,7.5,7.5,7.5s7.5-3.4,7.5-7.5v-71.9h18v86.1h-16.6c-4.1,0-7.5,3.4-7.5,7.5v71.3c0,4.1,3.4,7.5,7.5,7.5s7.5-3.4,7.5-7.5
		v-63.8h53.2v27.8c0,4.1,3.4,7.5,7.5,7.5s7.5-3.4,7.5-7.5V214.7h20.2v96.7c0,4.1,3.4,7.5,7.5,7.5s7.5-3.4,7.5-7.5v-18.6H238
		c4.1,0,7.5-3.4,7.5-7.5v-41.6h20.2v60h-24.2c-4.1,0-7.5,3.4-7.5,7.5v46.8h-16.5c-4.1,0-7.5,3.4-7.5,7.5v60c0,4.1,3.4,7.5,7.5,7.5
		s7.5-3.4,7.5-7.5v-52.5h36v93c0,4.1,3.4,7.5,7.5,7.5s7.5-3.4,7.5-7.5V365.4c0-4.1-3.4-7.5-7.5-7.5H249v-39.3h59.3v93.3
		c0,4.1,3.4,7.5,7.5,7.5s7.5-3.4,7.5-7.5v-32h8v11c0,4.1,3.4,7.5,7.5,7.5s7.5-3.4,7.5-7.5V263.7l11.1-13.3c1.1-1.3,1.7-3,1.7-4.8
		v-79.8l9.3,6.9v102.3c0,2.1,0.9,4.1,2.5,5.5l11.6,10.6v135.8c0,4.1,3.4,7.5,7.5,7.5s7.5-3.4,7.5-7.5v-13.9H438v49.9
		c0,4.1,3.4,7.5,7.5,7.5H462c4.1,0,7.5-3.4,7.5-7.5S466.1,455.4,462,455.4z"/>
</g>
<path class="st0" d="M0,462.9h24V350.7h29c0,0-1,86,0,86s24,0,24,0v-120h21v-62h41v104.1h42V204.7h33v77h27v-43h33v69.7h37v63.3h27
	v-108l15.5-15.5v-96.5l23.6,23.6v97.4l16,16v118h51v56.2h25.5l-4.7,4.7H0V462.9z"/>
</svg>
